<svg width="48" height="48" viewBox="0 0 48 48" fill="none" xmlns="http://www.w3.org/2000/svg">
<path d="M45.6 0H2.4C1.07452 0 0 1.07452 0 2.4V45.6C0 46.9255 1.07452 48 2.4 48H45.6C46.9255 48 48 46.9255 48 45.6V2.4C48 1.07452 46.9255 0 45.6 0Z" fill="#00875F"/>
<path d="M25.2751 35.7599C24.9804 35.4964 24.6708 35.2319 24.376 34.9401C24.1404 35.1594 23.9196 35.3644 23.6839 35.5694C20.766 38.099 17.7602 39.1525 15.977 38.1282C14.2524 37.1481 13.7071 34.2508 14.4002 30.6076C14.4738 30.2124 14.5623 29.8174 14.6656 29.4225C14.356 29.3346 14.0613 29.2468 13.7666 29.1446C10.097 27.8879 7.68021 25.8378 7.68021 23.7892C7.68021 21.8145 9.93621 19.8974 13.4565 18.6686C13.8544 18.537 14.2672 18.405 14.6944 18.2879C14.5912 17.9073 14.5173 17.542 14.4439 17.1906C13.7071 13.4879 14.2231 10.533 15.9621 9.53848C17.7746 8.48488 20.7808 9.61144 23.8015 12.2601C23.9781 12.4209 24.1552 12.5961 24.3468 12.7718C24.6271 12.5087 24.892 12.2438 25.1724 12.0114C28.0322 9.53848 30.8752 8.49928 32.6133 9.49432C34.4258 10.5182 34.9567 13.6799 34.146 17.5852C34.1018 17.8343 34.0428 18.0681 33.9842 18.3172C34.3524 18.4199 34.7205 18.5366 35.0599 18.6532C38.6556 19.8825 40.984 21.7991 40.9548 23.8185C40.9548 25.8825 38.4645 27.9153 34.6476 29.1734C34.4412 29.2319 34.2352 29.3049 34.0288 29.3654C34.1172 29.6582 34.1762 29.9505 34.2352 30.2433C35.0032 34.0353 34.4124 37.1351 32.6292 38.1594C32.1549 38.4227 31.6192 38.5552 31.0768 38.5434C29.44 38.5439 27.3655 37.5412 25.2751 35.7599ZM28.1637 30.3902C27.3134 31.6203 26.3834 32.7933 25.3797 33.9018C25.6596 34.1802 25.9394 34.4298 26.2197 34.6626C28.6509 36.7401 30.8911 37.5158 31.937 36.9158C32.4237 36.6378 32.836 35.9356 33.028 34.8676C33.241 33.4158 33.1809 31.937 32.8509 30.5073C32.8068 30.2438 32.7477 29.9793 32.6738 29.7023C31.1863 30.026 29.6797 30.2551 28.1632 30.3882L28.1637 30.3902ZM15.8148 30.8586C15.2109 33.9748 15.6525 36.3013 16.6989 36.9013C17.1856 37.1793 17.9949 37.1793 19.0274 36.8135C20.4019 36.2792 21.6658 35.4955 22.7556 34.5018C22.9768 34.3262 23.1828 34.1212 23.404 33.9167C22.3774 32.807 21.4222 31.6333 20.5442 30.4026C19.034 30.2851 17.533 30.0704 16.0504 29.7599C15.9621 30.1396 15.8882 30.5049 15.8143 30.8562L15.8148 30.8586ZM24.3914 32.9068C25.0399 32.1897 25.6874 31.3996 26.3368 30.5217C25.6884 30.551 25.0106 30.5654 24.3328 30.5654C23.6695 30.5654 23.0212 30.5508 22.3879 30.5217C23.0148 31.3494 23.6834 32.1449 24.3909 32.9049L24.3914 32.9068ZM21.2964 18.6239C20.7367 19.4284 20.1924 20.277 19.6754 21.1679C19.1594 22.0458 18.688 22.9386 18.2604 23.8305C18.7024 24.7084 19.1724 25.6012 19.6898 26.5084C20.2058 27.3863 20.7511 28.2494 21.3108 29.0687C22.2832 29.1273 23.3004 29.1566 24.3319 29.1566C25.3778 29.1566 26.3959 29.1273 27.3818 29.0543C27.9127 28.2494 28.4575 27.3863 28.9735 26.4935C29.4895 25.6007 29.9752 24.694 30.4029 23.8161C29.9757 22.9521 29.4909 22.0602 28.9735 21.1679C28.456 20.2756 27.9122 19.4265 27.3674 18.6239C26.38 18.5505 25.3629 18.5063 24.3319 18.5063C23.3008 18.5063 22.2837 18.551 21.2964 18.6239ZM16.4335 28.4126C17.446 28.6276 18.4692 28.789 19.4988 28.8959C19.145 28.3396 18.7917 27.7838 18.4524 27.1986C18.1284 26.6284 17.8039 26.0572 17.5092 25.487C17.0995 26.4426 16.7404 27.4191 16.4335 28.4126V28.4126ZM30.2095 27.1833C29.8706 27.7684 29.5317 28.3247 29.1928 28.8662C30.2377 28.7439 31.2756 28.5677 32.3023 28.3382C31.9811 27.3483 31.6072 26.3763 31.182 25.4265C30.8741 26.0114 30.5506 26.5972 30.2114 27.1838L30.2095 27.1833ZM13.9135 20.0159C10.9077 21.069 9.09525 22.6079 9.09525 23.805C9.09525 24.3614 9.50757 25.0636 10.3327 25.7654C11.4978 26.6733 12.8151 27.3668 14.2231 27.8135C14.4885 27.9014 14.7684 27.9748 15.0482 28.0626C15.5027 26.6195 16.0492 25.207 16.6845 23.8338C16.048 22.4832 15.5062 21.0899 15.0631 19.6641C14.6653 19.7655 14.2821 19.8828 13.9135 20.0159ZM31.9946 23.805C32.648 25.1606 33.2093 26.5586 33.6746 27.9897C33.8666 27.9316 34.0586 27.8726 34.2348 27.814C37.5208 26.7311 39.5546 25.078 39.5695 23.7902C39.5695 22.5902 37.6831 21.0398 34.6029 19.9862C34.2938 19.8839 33.9549 19.7812 33.616 19.679C33.167 21.0881 32.6254 22.4659 31.9946 23.8036V23.805ZM30.197 20.4383C30.5359 21.0234 30.8599 21.5946 31.157 22.1663C31.5655 21.2366 31.9197 20.2839 32.2178 19.3132C31.2155 19.0862 30.2024 18.91 29.1823 18.7852C29.5336 19.3266 29.8725 19.8681 30.197 20.4383ZM16.4479 19.2959C16.7426 20.2319 17.0964 21.1833 17.5092 22.1634C17.8039 21.5932 18.1284 21.022 18.4524 20.4518C18.7764 19.8815 19.1152 19.3252 19.469 18.7838C18.4082 18.9172 17.4064 19.0929 16.4479 19.2959ZM26.1007 13.079C25.8501 13.2983 25.5996 13.5326 25.349 13.7668C26.3676 14.8603 27.3081 16.024 28.1637 17.2492C29.661 17.3836 31.1475 17.6184 32.6133 17.9519C32.6724 17.7326 32.7165 17.5127 32.7607 17.2934C33.4528 13.9286 33.0261 11.3529 31.9058 10.7097C31.657 10.581 31.3794 10.5182 31.0994 10.5273C29.8956 10.5268 28.0485 11.3994 26.1007 13.079ZM16.6692 10.7519C15.6228 11.3514 15.2104 13.7514 15.8292 16.9118C15.9026 17.2478 15.977 17.5838 16.0648 17.9356C17.5327 17.6146 19.0191 17.385 20.5154 17.2482C21.3741 16.0214 22.3195 14.8576 23.3445 13.7658C23.1823 13.6046 23.0056 13.4586 22.8434 13.3118C20.7904 11.505 18.821 10.5513 17.5332 10.5513C17.2326 10.5415 16.9347 10.6107 16.6692 10.7519V10.7519ZM26.3066 17.1311C25.6977 16.3101 25.0434 15.5238 24.3468 14.7758C23.6839 15.4924 23.0205 16.283 22.372 17.1311C23.0205 17.1018 23.668 17.0874 24.3319 17.0874C24.9957 17.0874 25.6581 17.1028 26.3066 17.1316V17.1311ZM21.3832 23.8626C21.3792 23.2732 21.5502 22.6958 21.8747 22.2037C22.1992 21.7116 22.6626 21.3269 23.206 21.0985C23.7494 20.8701 24.3484 20.8082 24.9271 20.9207C25.5057 21.0332 26.0379 21.315 26.4562 21.7303C26.8745 22.1457 27.1599 22.6759 27.2765 23.2538C27.393 23.8316 27.3353 24.431 27.1106 24.976C26.886 25.521 26.5046 25.987 26.0147 26.315C25.5249 26.6429 24.9487 26.818 24.3592 26.818C23.9695 26.8203 23.5832 26.7456 23.2224 26.5982C22.8616 26.4508 22.5335 26.2335 22.257 25.9589C21.9804 25.6842 21.7609 25.3577 21.6109 24.9979C21.461 24.6382 21.3836 24.2524 21.3832 23.8626V23.8626Z" fill="white"/>
</svg>
